<svg width="20" height="20" viewBox="0 0 20 20" fill="none" xmlns="http://www.w3.org/2000/svg">
<g id="iconoir:eye-empty">
<g id="Group">
<path id="Vector" d="M10 11.6667C10.4421 11.6667 10.866 11.4911 11.1786 11.1785C11.4911 10.866 11.6667 10.442 11.6667 10C11.6667 9.55798 11.4911 9.13405 11.1786 8.82149C10.866 8.50893 10.4421 8.33334 10 8.33334C9.55801 8.33334 9.13409 8.50893 8.82153 8.82149C8.50897 9.13405 8.33337 9.55798 8.33337 10C8.33337 10.442 8.50897 10.866 8.82153 11.1785C9.13409 11.4911 9.55801 11.6667 10 11.6667Z" stroke="#1125D6" stroke-width="1.25" stroke-linecap="round" stroke-linejoin="round"/>
<path id="Vector_2" d="M17.5 10C15.9258 12.4925 13.0983 15 10 15C6.90167 15 4.07417 12.4925 2.5 10C4.41583 7.63167 6.66 5 10 5C13.34 5 15.5842 7.63167 17.5 10Z" stroke="#1125D6" stroke-width="1.25" stroke-linecap="round" stroke-linejoin="round"/>
</g>
</g>
</svg>
